<mxfile host="app.diagrams.net" modified="2023-04-28T13:32:33.952Z" agent="Mozilla/5.0 (Windows NT 10.0; Win64; x64) AppleWebKit/537.36 (KHTML, like Gecko) Chrome/112.0.0.0 Safari/537.36" version="21.2.3" etag="Sjcb-L8mCJdeJIMLKfGr" type="github">
  <diagram name="Seite-1" id="iXZENEn_q2fQllutZCWd">
    <mxGraphModel>
      <root>
        <mxCell id="0" />
        <mxCell id="1" parent="0" />
      </root>
    </mxGraphModel>
  </diagram>
</mxfile>
